<svg xmlns="http://www.w3.org/2000/svg" xmlns:xlink="http://www.w3.org/1999/xlink" id="Livello_1" x="0" y="0" version="1.1" viewBox="0 0 355.9 355.9" xml:space="preserve" style="enable-background:new 0 0 355.9 355.9"><style type="text/css">.st0{fill:#00f}</style><path d="M321.9,96H163.9v33.9c0,18.7-15.2,33.9-33.9,33.9S96,148.7,96,129.9S111.2,96,129.9,96h33.9V33.9	c0-18.7-15.2-33.9-33.9-33.9h-96C15.2,0,0,15.2,0,33.9v288c0,18.7,15.2,33.9,33.9,33.9h96c18.7,0,33.9-15.2,33.9-33.9h0v-62.1h-33.9	c-18.7,0-33.9-15.2-33.9-33.9s15.2-33.9,33.9-33.9c18.7,0,33.9,15.2,33.9,33.9v33.9H192v-33.9c0-18.7,15.2-33.9,33.9-33.9	s33.9,15.2,33.9,33.9s-15.2,33.9-33.9,33.9H192v62.1c0,18.7,15.2,33.9,33.9,33.9h96c18.7,0,33.9-15.2,33.9-33.9v-192	C355.9,111.2,340.7,96,321.9,96z" class="st0"/></svg>