<svg xmlns="http://www.w3.org/2000/svg" xmlns:xlink="http://www.w3.org/1999/xlink" id="Livello_1" x="0" y="0" version="1.1" viewBox="0 0 619.2 619.2" xml:space="preserve" style="enable-background:new 0 0 619.2 619.2"><style type="text/css">.st0{fill:#00f}.st1{fill:none;stroke:#00f;stroke-miterlimit:10}</style><g><path d="M334,393c0-32.6,26.4-59,59-59s59,26.4,59,59s-26.4,59-59,59S334,425.5,334,393z" class="st0"/><path d="M241.5,169.3L44.2,116.4C13,108.1-5.6,76.2,2.3,44.9c8-31.3,39.6-50.3,71-42.7l472.5,114.6 c28.8,7,58.4-8.5,69-36.3s-1.1-59-27.3-73c-26.2-14-58.7-6.4-75.9,17.8L107.5,593.9c-17.2,24.2-49.7,31.8-75.9,17.8 c-26.2-14-37.9-45.3-27.3-73c10.6-27.7,40.1-43.3,69-36.3L545.8,617c31.4,7.6,63-11.4,71-42.7s-10.7-63.2-41.9-71.5l-197.3-52.9" class="st1"/></g></svg>